<?xml version="1.0" encoding="UTF-8"?>
<svg width="320px" height="320px" view-box="0,0,320,320" xmlns="http://www.w3.org/2000/svg" xmlns:xlink="http://www.w3.org/1999/xlink">

<circle cx="160" cy="160" r="160" stroke="black" stroke-width="5" fill="white" />

<svg width="240px" height="240px" x="40px" y="50px" view-box="0,0,240,240">
	<path stroke="black" stroke-width="2" fill="yellow" d="
		M 20 120
		L 80 220
		Q 120 40 160 220
		L 220 120
		L 192.54891025000 99.41168268749
		A 100,50 0 0,1 47.45108975000,99.41168268749
		L 20 120
		Z
	" />
	<path stroke="black" stroke-width="2" fill="black" d="
		M 120 45
		L 47.45108975000,99.41168268749
		A 100,50 0 0,0 192.54891025000,99.41168268749
		L 120 45
		Z
	" />
	<path stroke="black" stroke-width="2" fill="blue" d="
		M 20 65
		A 100,50 0 0,0 47.45108975000,99.41168268749
		L 120 45
		Q 20 -30 20 65
		Z
	" />
	<path stroke="black" stroke-width="2" fill="red" d="
		M 220 65
		A 100,50 0 0,1 192.54891025000,99.41168268749
		L 120 45
		Q 220 -30 220 65
		Z
	" />
	<!--
	<path stroke="black" stroke-width="10" fill="none" d="
		M 20 120
		L 80 220
		Q 120 40 160 220
		L 220 120
		L 120 45
		Q 20 -30 20 65
		A 100,50 0 1,0 220,65
		Q 220 -30 120 45
		L 20 120
		Z
	" />
	<path stroke="black" stroke-width="1" fill="none" d="
		M 20 65
		A 100,50 0 1,0 220,65
		Q 220 -30 120 45
		Q 20 -30 20 65
		Z
	" />
	// -->
</svg>

</svg>
